<svg xmlns="http://www.w3.org/2000/svg" width="1200" height="630" viewBox="0 0 680 340">
<rect width="680" height="340" fill="#E8F5EE"/>
<rect x="420" y="20" width="220" height="140" rx="16" fill="#7ECBB0" opacity="0.22"/>
<rect x="450" y="55" width="220" height="140" rx="16" fill="#7ECBB0" opacity="0.15"/>
<rect x="480" y="90" width="220" height="140" rx="16" fill="#7ECBB0" opacity="0.10"/>
<rect x="436" y="90" width="34" height="18" rx="9" fill="#7ECBB0" opacity="0.30"/>
<rect x="477" y="90" width="55" height="7" rx="3" fill="#7ECBB0" opacity="0.28"/>
<rect x="477" y="102" width="42" height="6" rx="3" fill="#7ECBB0" opacity="0.22"/>
<rect x="436" y="115" width="18" height="10" rx="3" fill="#7ECBB0" opacity="0.45"/>
<rect x="460" y="115" width="18" height="10" rx="3" fill="#7ECBB0" opacity="0.45"/>
<rect x="484" y="115" width="28" height="10" rx="3" fill="#7ECBB0" opacity="0.45"/>
<circle cx="110" cy="148" r="92" fill="white" opacity="0.45"/>
<g transform="translate(18,44) scale(0.73)">
  <rect width="200" height="200" rx="38" fill="#FFFFFF"/>
  <rect x="40" y="42" width="122" height="132" rx="14" fill="#0A4D30" opacity="0.10"/>
  <rect x="34" y="28" width="122" height="132" rx="14" fill="#E3F5EE"/>
  <rect x="34" y="28" width="122" height="34" rx="14" fill="#1D9E75"/>
  <rect x="34" y="48" width="122" height="14" fill="#1D9E75"/>
  <text x="46" y="54" font-family="Arial,sans-serif" font-weight="bold" font-size="22" fill="white" opacity="0.92">$</text>
  <rect x="70" y="36" width="72" height="8" rx="4" fill="white" opacity="0.45"/>
  <rect x="70" y="49" width="52" height="6" rx="3" fill="white" opacity="0.28"/>
  <rect x="34" y="28" width="114" height="9" rx="10" fill="white" opacity="0.16"/>
  <rect x="46" y="76" width="52" height="9" rx="4" fill="#7ECBB0"/>
  <rect x="112" y="76" width="32" height="9" rx="4" fill="#1D9E75"/>
  <line x1="42" y1="93" x2="148" y2="93" stroke="#B2DFCF" stroke-width="1"/>
  <rect x="46" y="98" width="44" height="9" rx="4" fill="#7ECBB0"/>
  <rect x="112" y="98" width="32" height="9" rx="4" fill="#1D9E75"/>
  <line x1="42" y1="115" x2="148" y2="115" stroke="#B2DFCF" stroke-width="1"/>
  <rect x="46" y="120" width="48" height="9" rx="4" fill="#7ECBB0"/>
  <rect x="112" y="120" width="32" height="9" rx="4" fill="#1D9E75"/>
  <circle cx="150" cy="152" r="28" fill="#E8701A" opacity="0.18"/>
  <circle cx="150" cy="152" r="22" fill="#E8701A"/>
  <g transform="translate(150,152) rotate(-45)">
    <rect x="-4" y="-18" width="8" height="4" rx="1.5" fill="rgba(255,255,255,0.55)"/>
    <rect x="-4" y="-14" width="8" height="3" fill="rgba(255,220,80,0.95)"/>
    <rect x="-4" y="-11" width="8" height="20" rx="1" fill="white"/>
    <polygon points="-4,9 4,9 0,17" fill="rgba(255,255,255,0.85)"/>
    <polygon points="-1,9 1,9 0,13" fill="#E8701A"/>
  </g>
</g>
<line x1="186" y1="52" x2="186" y2="278" stroke="#7ECBB0" stroke-width="1" opacity="0.6"/>
<text x="206" y="110" font-family="Georgia,serif" font-size="10" fill="#1D9E75" letter-spacing="3" font-weight="bold">EVERYTHING YOU NEED FOR</text>
<text x="204" y="152" font-family="Georgia,serif" font-size="32" fill="#0A3D28" font-weight="bold">Update Multiple</text>
<text x="204" y="192" font-family="Georgia,serif" font-size="32" fill="#0A3D28" font-weight="bold">Products Prices at Once</text>
<rect x="204" y="207" width="240" height="2" rx="1" fill="#1D9E75" opacity="0.4"/>
<text x="204" y="230" font-family="Georgia,serif" font-size="12" fill="#2E7D5A">Bulk-update pricelist entries by percentage</text>
<text x="204" y="250" font-family="Georgia,serif" font-size="12" fill="#2E7D5A">or fixed amount — all at once</text>
</svg>
