<svg xmlns="http://www.w3.org/2000/svg" width="1200" height="630" viewBox="0 0 680 340">

<rect width="680" height="340" fill="#EDE9F5"/>

<rect x="420" y="20" width="220" height="140" rx="16" fill="#C8BAE8" opacity="0.22"/>
<rect x="450" y="55" width="220" height="140" rx="16" fill="#C8BAE8" opacity="0.15"/>
<rect x="480" y="90" width="220" height="140" rx="16" fill="#C8BAE8" opacity="0.10"/>
<rect x="436" y="115" width="18" height="10" rx="3" fill="#B0A0D8" opacity="0.45"/>
<rect x="460" y="115" width="18" height="10" rx="3" fill="#B0A0D8" opacity="0.45"/>
<rect x="484" y="115" width="18" height="10" rx="3" fill="#B0A0D8" opacity="0.45"/>
<rect x="508" y="115" width="30" height="10" rx="3" fill="#B0A0D8" opacity="0.45"/>
<rect x="436" y="90" width="34" height="18" rx="9" fill="#B0A0D8" opacity="0.30"/>
<rect x="477" y="90" width="55" height="7" rx="3" fill="#B0A0D8" opacity="0.28"/>
<rect x="477" y="102" width="42" height="6" rx="3" fill="#B0A0D8" opacity="0.22"/>

<circle cx="110" cy="148" r="92" fill="white" opacity="0.52"/>

<g transform="translate(18,44) scale(0.73)">
  <rect width="200" height="200" rx="38" fill="#FFFFFF"/>
  <rect x="38" y="62" width="134" height="104" rx="15" fill="#1E0A50" opacity="0.14"/>
  <rect x="30" y="50" width="134" height="14" rx="15" fill="#AE82E0"/>
  <rect x="30" y="58" width="134" height="62" fill="#7B44C4"/>
  <rect x="30" y="102" width="134" height="26" fill="#5A28A0"/>
  <rect x="30" y="114" width="134" height="14" rx="15" fill="#4A1E8E"/>
  <rect x="42" y="62" width="110" height="82" rx="9" fill="#FFFFFF"/>
  <rect x="42" y="62" width="110" height="20" rx="9" fill="#F8F4FF"/>
  <rect x="48" y="69" width="34" height="34" rx="17" fill="#B898E4"/>
  <rect x="59" y="72" width="12" height="12" rx="6" fill="#F0E8FA"/>
  <path d="M50 101 Q51 94 65 94 Q79 94 80 101" fill="#F0E8FA"/>
  <rect x="90" y="70" width="56" height="7" rx="3" fill="#D8C8F0"/>
  <rect x="90" y="82" width="44" height="6" rx="3" fill="#E4D8F5"/>
  <rect x="90" y="93" width="50" height="6" rx="3" fill="#E4D8F5"/>
  <rect x="42" y="113" width="110" height="24" rx="7" fill="#C84E08"/>
  <rect x="42" y="113" width="110" height="12" rx="7" fill="#F5902A"/>
  <rect x="42" y="119" width="110" height="6" fill="#E8701A"/>
  <rect x="49" y="118" width="14" height="13" rx="3" fill="rgba(255,255,255,0.9)"/>
  <rect x="67" y="118" width="14" height="13" rx="3" fill="rgba(255,255,255,0.9)"/>
  <rect x="85" y="118" width="14" height="13" rx="3" fill="rgba(255,255,255,0.9)"/>
  <rect x="103" y="118" width="14" height="13" rx="3" fill="rgba(255,255,255,0.9)"/>
  <rect x="122" y="118" width="22" height="13" rx="3" fill="rgba(255,255,255,0.9)"/>
  <rect x="36" y="50" width="124" height="10" rx="10" fill="white" opacity="0.28"/>
</g>

<line x1="186" y1="52" x2="186" y2="278" stroke="#C0AADC" stroke-width="1" opacity="0.55"/>

<text x="206" y="118" font-family="Georgia,serif" font-size="10" fill="#8868B8" letter-spacing="3" font-weight="bold">EVERYTHING YOU NEED FOR</text>
<text x="204" y="165" font-family="Georgia,serif" font-size="34" fill="#280E5C" font-weight="bold">Reset User's Password</text>
<text x="204" y="208" font-family="Georgia,serif" font-size="34" fill="#280E5C" font-weight="bold">from Contacts Form</text>
<rect x="204" y="223" width="200" height="2" rx="1" fill="#9070C0" opacity="0.4"/>
<text x="204" y="248" font-family="Georgia,serif" font-size="12" fill="#6050A0">Reset portal contact passwords directly from the backend</text>

</svg>