<svg xmlns="http://www.w3.org/2000/svg" viewBox="0 0 200 200" width="200" height="200">

  <rect width="200" height="200" rx="38" fill="#FFFFFF"/>

  <rect x="38" y="62" width="134" height="104" rx="15" fill="#1E0A50" opacity="0.14"/>

  <rect x="30" y="50" width="134" height="14" rx="15" fill="#AE82E0"/>
  <rect x="30" y="58" width="134" height="62" fill="#7B44C4"/>
  <rect x="30" y="102" width="134" height="26" fill="#5A28A0"/>
  <rect x="30" y="114" width="134" height="14" rx="15" fill="#4A1E8E"/>

  <rect x="42" y="62" width="110" height="82" rx="9" fill="#FFFFFF"/>
  <rect x="42" y="62" width="110" height="20" rx="9" fill="#F8F4FF"/>

  <rect x="48" y="69" width="34" height="34" rx="17" fill="#B898E4"/>
  <rect x="59" y="72" width="12" height="12" rx="6" fill="#F0E8FA"/>
  <path d="M50 101 Q51 94 65 94 Q79 94 80 101" fill="#F0E8FA"/>

  <rect x="90" y="70" width="56" height="7" rx="3" fill="#D8C8F0"/>
  <rect x="90" y="82" width="44" height="6" rx="3" fill="#E4D8F5"/>
  <rect x="90" y="93" width="50" height="6" rx="3" fill="#E4D8F5"/>

  <rect x="42" y="113" width="110" height="24" rx="7" fill="#C84E08"/>
  <rect x="42" y="113" width="110" height="12" rx="7" fill="#F5902A"/>
  <rect x="42" y="119" width="110" height="6" fill="#E8701A"/>

  <rect x="49" y="118" width="14" height="13" rx="3" fill="rgba(255,255,255,0.9)"/>
  <rect x="67" y="118" width="14" height="13" rx="3" fill="rgba(255,255,255,0.9)"/>
  <rect x="85" y="118" width="14" height="13" rx="3" fill="rgba(255,255,255,0.9)"/>
  <rect x="103" y="118" width="14" height="13" rx="3" fill="rgba(255,255,255,0.9)"/>
  <rect x="122" y="118" width="22" height="13" rx="3" fill="rgba(255,255,255,0.9)"/>

  <rect x="36" y="50" width="124" height="10" rx="10" fill="white" opacity="0.28"/>

</svg>
